# xmcd
#
# Track frame offsets:
#	150
#	14290
#	30119
#	47350
#	65272
#	84237
#	103103
#	118855
#	131379
#	148005
#	162654
#	174480
#
# Disc length: 2575 seconds
#
# Revision: 0
# Processed by: cddbd v1.5.2PL0 Copyright (c) Steve Scherf et al.
# Submitted via: EasyCDDAExtractor 16.0.8.1
#
DISCID=920a0d0c
DTITLE=Jean-Marc Couture - Si Tel Est Ton Désir
DYEAR=2013
DGENRE=Blues
TTITLE0=Si Tel Est Ton Désir
TTITLE1=Elle Veut Mon Âme
TTITLE2=D'aimer Comme J'aime
TTITLE3=Toi Qui Me Fais Vivre
TTITLE4=Transi
TTITLE5=Là Pour Rester
TTITLE6=Si Tu M'aimes Encore
TTITLE7=La Nuit Est Chaude
TTITLE8=Je Suis Ailleurs
TTITLE9=Le Vent Et La Rivière
TTITLE10=Faut Que Tu Reviennes
TTITLE11=Elle Attend
EXTD=
EXTT0=
EXTT1=
EXTT2=
EXTT3=
EXTT4=
EXTT5=
EXTT6=
EXTT7=
EXTT8=
EXTT9=
EXTT10=
EXTT11=
PLAYORDER=
